<?xml version="1.0" standalone="no"?>
<!DOCTYPE svg PUBLIC "-//W3C//DTD SVG 20010904//EN"
 "http://www.w3.org/TR/2001/REC-SVG-20010904/DTD/svg10.dtd">
<svg version="1.0" xmlns="http://www.w3.org/2000/svg"
 width="237.000000pt" height="237.000000pt" viewBox="0 0 237.000000 237.000000"
 preserveAspectRatio="xMidYMid meet">
<metadata>
Created by potrace 1.11, written by Peter Selinger 2001-2013
</metadata>
<g transform="translate(0.000000,237.000000) scale(0.100000,-0.100000)"
fill="#000000" stroke="none">
<path d="M896 2297 c-22 -39 -85 -144 -141 -232 -56 -88 -204 -330 -329 -539
-240 -400 -267 -442 -352 -548 -59 -73 -68 -96 -32 -77 32 17 38 24 131 155
78 110 136 202 320 504 39 63 80 131 93 150 12 19 36 58 52 85 60 102 164 270
174 280 5 6 3 -8 -6 -30 -32 -84 -232 -631 -317 -870 -49 -137 -98 -272 -108
-300 -116 -309 -181 -482 -224 -594 -38 -101 -48 -137 -40 -150 20 -32 39 -23
69 36 17 32 77 148 134 258 164 318 211 408 231 437 11 14 19 29 19 32 0 7 84
133 150 223 58 79 82 90 34 15 -121 -187 -168 -278 -202 -382 -38 -114 -29
-164 31 -193 41 -20 85 -6 218 69 57 32 114 63 126 67 27 10 29 20 8 41 -21
21 -44 14 -138 -40 -45 -26 -98 -56 -117 -67 -19 -11 -50 -23 -67 -27 -31 -7
-33 -6 -33 20 0 32 43 167 73 225 11 22 62 113 114 202 101 172 107 195 56
214 -19 7 -31 5 -53 -11 -92 -65 -238 -289 -409 -625 -33 -66 -61 -116 -61
-112 0 4 99 279 219 610 312 857 323 888 391 1061 34 86 59 163 56 171 -11 30
-32 13 -70 -58z"/>
<path d="M1685 1858 c-151 -79 -474 -389 -623 -597 -71 -98 -17 -65 79 49 100
118 245 268 344 355 113 100 265 198 281 182 13 -12 -27 -101 -117 -259 -212
-374 -303 -516 -429 -668 -268 -325 -483 -659 -533 -828 -23 -77 -2 -110 46
-72 32 26 177 244 271 410 97 170 102 176 119 162 15 -12 19 -10 217 114 296
186 915 504 981 504 24 0 24 16 1 29 -25 13 -73 1 -195 -50 -173 -72 -699
-348 -767 -404 -8 -6 -33 -22 -55 -35 l-40 -23 35 38 c19 21 40 44 45 50 8 10
74 83 200 221 238 261 325 369 325 402 0 14 -9 27 -24 33 -19 9 -31 6 -67 -17
-24 -15 -49 -32 -55 -38 -6 -6 -37 -33 -70 -61 -32 -27 -77 -66 -99 -85 -22
-20 -49 -42 -59 -50 -19 -14 -19 -14 -4 10 47 75 219 372 241 415 40 81 74
169 71 188 -7 50 -53 60 -119 25z m76 -495 c-16 -21 -40 -50 -53 -64 -13 -15
-42 -49 -65 -75 -43 -51 -61 -71 -228 -249 -158 -168 -225 -237 -225 -230 0 6
144 226 170 259 67 85 398 394 423 396 5 0 -5 -17 -22 -37z m-719 -775 c-11
-18 -48 -82 -83 -143 -72 -127 -186 -302 -201 -311 -20 -13 83 174 165 296 88
133 128 190 135 190 2 0 -5 -15 -16 -32z"/>
</g>
</svg>
